<svg width="316" height="68" viewBox="0 0 316 68" fill="none" xmlns="http://www.w3.org/2000/svg">
<path d="M68.4419 28.4864C68.174 28.0224 68.174 27.4507 68.4419 26.9866L78.6006 9.3876C78.8685 8.92343 79.3637 8.63748 79.8997 8.63748L100.217 8.63748C100.753 8.63748 101.248 8.92343 101.516 9.3876L111.674 26.9866C111.942 27.4507 111.942 28.0223 111.674 28.4864L101.516 46.0854C101.248 46.5496 100.753 46.8355 100.217 46.8355L79.8997 46.8355C79.3637 46.8355 78.8685 46.5496 78.6006 46.0854L68.4419 28.4864Z" fill="#FFF04C" fill-opacity="0.8"/>
<path d="M132.442 28.4864C132.174 28.0224 132.174 27.4507 132.442 26.9866L142.601 9.3876C142.869 8.92343 143.364 8.63748 143.9 8.63748L164.217 8.63748C164.753 8.63748 165.248 8.92343 165.516 9.3876L175.674 26.9866C175.942 27.4507 175.942 28.0223 175.674 28.4864L165.516 46.0854C165.248 46.5496 164.753 46.8355 164.217 46.8355L143.9 46.8355C143.364 46.8355 142.869 46.5496 142.601 46.0854L132.442 28.4864Z" fill="#FFBC09" fill-opacity="0.8"/>
<path d="M196.442 28.4864C196.174 28.0224 196.174 27.4507 196.442 26.9866L206.601 9.3876C206.869 8.92343 207.364 8.63748 207.9 8.63748L228.217 8.63748C228.753 8.63748 229.248 8.92343 229.516 9.3876L239.674 26.9866C239.942 27.4507 239.942 28.0223 239.674 28.4864L229.516 46.0854C229.248 46.5496 228.753 46.8355 228.217 46.8355L207.9 46.8355C207.364 46.8355 206.869 46.5496 206.601 46.0854L196.442 28.4864Z" fill="#FF7100" fill-opacity="0.8"/>
<path d="M260.442 28.4864C260.174 28.0224 260.174 27.4507 260.442 26.9866L270.601 9.3876C270.869 8.92343 271.364 8.63748 271.9 8.63748L292.217 8.63748C292.753 8.63748 293.248 8.92343 293.516 9.3876L303.674 26.9866C303.942 27.4507 303.942 28.0223 303.674 28.4864L293.516 46.0854C293.248 46.5496 292.753 46.8355 292.217 46.8355L271.9 46.8355C271.364 46.8355 270.869 46.5496 270.601 46.0854L260.442 28.4864Z" fill="#FF0000" fill-opacity="0.8"/>
<path d="M4.48527 27.8405C4.18498 27.3204 4.18498 26.6796 4.48527 26.1595L14.5147 8.78796C14.815 8.26784 15.37 7.94744 15.9705 7.94744H36.0295C36.63 7.94744 37.185 8.26784 37.4853 8.78796L47.5147 26.1595C47.815 26.6796 47.815 27.3204 47.5147 27.8405L37.4853 45.212C37.185 45.7322 36.63 46.0526 36.0295 46.0526H15.9705C15.37 46.0526 14.815 45.7322 14.5147 45.212L4.48527 27.8405Z" fill="white" fill-opacity="0.6" stroke="#898989" stroke-opacity="0.8"/>
<path d="M12.1768 59.6378C12.1389 59.3016 11.9826 59.0412 11.708 58.8565C11.4334 58.6695 11.0877 58.576 10.6711 58.576C10.3728 58.576 10.1147 58.6233 9.89693 58.718C9.67913 58.8104 9.50985 58.9382 9.38912 59.1016C9.27074 59.2625 9.21156 59.446 9.21156 59.652C9.21156 59.8248 9.25181 59.974 9.3323 60.0994C9.41516 60.2249 9.52288 60.3303 9.65545 60.4155C9.79039 60.4983 9.93481 60.5682 10.0887 60.625C10.2426 60.6795 10.3905 60.7244 10.5326 60.7599L11.2428 60.9446C11.4748 61.0014 11.7127 61.0784 11.9566 61.1754C12.2004 61.2725 12.4265 61.4003 12.6349 61.5589C12.8432 61.7176 13.0113 61.9141 13.1391 62.1484C13.2693 62.3828 13.3344 62.6634 13.3344 62.9901C13.3344 63.402 13.2279 63.7678 13.0148 64.0874C12.8041 64.407 12.4975 64.6591 12.0951 64.8438C11.695 65.0284 11.2108 65.1207 10.6427 65.1207C10.0982 65.1207 9.62704 65.0343 9.22931 64.8615C8.83159 64.6887 8.52027 64.4437 8.29537 64.1264C8.07046 63.8068 7.94617 63.428 7.9225 62.9901H9.02335C9.04466 63.2528 9.12988 63.4718 9.27903 63.647C9.43055 63.8198 9.62349 63.9489 9.85787 64.0341C10.0946 64.117 10.3538 64.1584 10.6356 64.1584C10.9457 64.1584 11.2215 64.1098 11.463 64.0128C11.7068 63.9134 11.8986 63.776 12.0383 63.6009C12.1779 63.4233 12.2478 63.2161 12.2478 62.9794C12.2478 62.764 12.1862 62.5876 12.0631 62.4503C11.9424 62.313 11.7778 62.1993 11.5695 62.1094C11.3635 62.0194 11.1304 61.9401 10.8699 61.8714L10.0106 61.6371C9.42818 61.4785 8.96653 61.2453 8.62562 60.9375C8.28708 60.6297 8.11781 60.2225 8.11781 59.7159C8.11781 59.2969 8.23145 58.9311 8.45872 58.6186C8.68599 58.3061 8.99376 58.0634 9.38201 57.8906C9.77027 57.7154 10.2082 57.6278 10.6959 57.6278C11.1884 57.6278 11.6228 57.7143 11.9992 57.8871C12.378 58.0599 12.6763 58.2978 12.8941 58.6009C13.1119 58.9015 13.2255 59.2472 13.235 59.6378H12.1768ZM14.5605 65V59.5455H15.5796V60.4332H15.6471C15.7607 60.1326 15.9466 59.8982 16.2046 59.7301C16.4627 59.5597 16.7716 59.4744 17.1315 59.4744C17.4961 59.4744 17.8015 59.5597 18.0477 59.7301C18.2963 59.9006 18.4797 60.1349 18.5981 60.4332H18.6549C18.7851 60.142 18.9923 59.91 19.2764 59.7372C19.5605 59.562 19.899 59.4744 20.292 59.4744C20.7868 59.4744 21.1904 59.6295 21.5029 59.9396C21.8178 60.2498 21.9752 60.7173 21.9752 61.3423V65H20.9134V61.4418C20.9134 61.0724 20.8128 60.8049 20.6116 60.6392C20.4104 60.4735 20.1701 60.3906 19.8907 60.3906C19.5451 60.3906 19.2764 60.4972 19.0846 60.7102C18.8928 60.9209 18.797 61.192 18.797 61.5234V65H17.7387V61.3743C17.7387 61.0784 17.6464 60.8404 17.4617 60.6605C17.2771 60.4806 17.0368 60.3906 16.7409 60.3906C16.5396 60.3906 16.3538 60.4439 16.1833 60.5504C16.0152 60.6546 15.8791 60.8002 15.7749 60.9872C15.6731 61.1742 15.6222 61.3909 15.6222 61.6371V65H14.5605ZM25.6959 65.1101C25.1846 65.1101 24.7383 64.9929 24.3572 64.7585C23.976 64.5241 23.6801 64.1963 23.4694 63.7749C23.2587 63.3535 23.1533 62.861 23.1533 62.2976C23.1533 61.7318 23.2587 61.237 23.4694 60.8132C23.6801 60.3894 23.976 60.0604 24.3572 59.826C24.7383 59.5916 25.1846 59.4744 25.6959 59.4744C26.2073 59.4744 26.6536 59.5916 27.0347 59.826C27.4159 60.0604 27.7118 60.3894 27.9225 60.8132C28.1332 61.237 28.2385 61.7318 28.2385 62.2976C28.2385 62.861 28.1332 63.3535 27.9225 63.7749C27.7118 64.1963 27.4159 64.5241 27.0347 64.7585C26.6536 64.9929 26.2073 65.1101 25.6959 65.1101ZM25.6995 64.2188C26.0309 64.2188 26.3055 64.1312 26.5233 63.956C26.7412 63.7808 26.9021 63.5476 27.0063 63.2564C27.1128 62.9652 27.1661 62.6444 27.1661 62.294C27.1661 61.946 27.1128 61.6264 27.0063 61.3352C26.9021 61.0417 26.7412 60.8061 26.5233 60.6286C26.3055 60.451 26.0309 60.3622 25.6995 60.3622C25.3657 60.3622 25.0887 60.451 24.8685 60.6286C24.6507 60.8061 24.4885 61.0417 24.382 61.3352C24.2778 61.6264 24.2258 61.946 24.2258 62.294C24.2258 62.6444 24.2778 62.9652 24.382 63.2564C24.4885 63.5476 24.6507 63.7808 24.8685 63.956C25.0887 64.1312 25.3657 64.2188 25.6995 64.2188ZM31.7213 65.1101C31.21 65.1101 30.7637 64.9929 30.3825 64.7585C30.0014 64.5241 29.7055 64.1963 29.4948 63.7749C29.2841 63.3535 29.1787 62.861 29.1787 62.2976C29.1787 61.7318 29.2841 61.237 29.4948 60.8132C29.7055 60.3894 30.0014 60.0604 30.3825 59.826C30.7637 59.5916 31.21 59.4744 31.7213 59.4744C32.2327 59.4744 32.6789 59.5916 33.0601 59.826C33.4413 60.0604 33.7372 60.3894 33.9479 60.8132C34.1586 61.237 34.2639 61.7318 34.2639 62.2976C34.2639 62.861 34.1586 63.3535 33.9479 63.7749C33.7372 64.1963 33.4413 64.5241 33.0601 64.7585C32.6789 64.9929 32.2327 65.1101 31.7213 65.1101ZM31.7249 64.2188C32.0563 64.2188 32.3309 64.1312 32.5487 63.956C32.7665 63.7808 32.9275 63.5476 33.0317 63.2564C33.1382 62.9652 33.1915 62.6444 33.1915 62.294C33.1915 61.946 33.1382 61.6264 33.0317 61.3352C32.9275 61.0417 32.7665 60.8061 32.5487 60.6286C32.3309 60.451 32.0563 60.3622 31.7249 60.3622C31.3911 60.3622 31.1141 60.451 30.8939 60.6286C30.6761 60.8061 30.5139 61.0417 30.4074 61.3352C30.3032 61.6264 30.2512 61.946 30.2512 62.294C30.2512 62.6444 30.3032 62.9652 30.4074 63.2564C30.5139 63.5476 30.6761 63.7808 30.8939 63.956C31.1141 64.1312 31.3911 64.2188 31.7249 64.2188ZM37.9953 59.5455V60.3977H35.0159V59.5455H37.9953ZM35.8149 58.2386H36.8767V63.3984C36.8767 63.6044 36.9075 63.7595 36.969 63.8636C37.0306 63.9654 37.1099 64.0353 37.2069 64.0732C37.3064 64.1087 37.4141 64.1264 37.5301 64.1264C37.6153 64.1264 37.6899 64.1205 37.7538 64.1087C37.8177 64.0968 37.8675 64.0874 37.903 64.0803L38.0947 64.9574C38.0332 64.9811 37.9456 65.0047 37.8319 65.0284C37.7183 65.0545 37.5763 65.0687 37.4058 65.071C37.1265 65.0758 36.866 65.026 36.6246 64.9219C36.3831 64.8177 36.1878 64.6567 36.0386 64.4389C35.8895 64.2211 35.8149 63.9477 35.8149 63.6186V58.2386ZM40.3488 61.7614V65H39.287V57.7273H40.3346V60.4332H40.4021C40.5299 60.1397 40.7252 59.9065 40.988 59.7337C41.2508 59.5608 41.5941 59.4744 42.0178 59.4744C42.3919 59.4744 42.7186 59.5514 42.998 59.7053C43.2797 59.8591 43.4975 60.0888 43.6514 60.3942C43.8076 60.6972 43.8857 61.076 43.8857 61.5305V65H42.824V61.6584C42.824 61.2583 42.721 60.9482 42.515 60.728C42.309 60.5054 42.0226 60.3942 41.6556 60.3942C41.4047 60.3942 41.1798 60.4474 40.9809 60.554C40.7844 60.6605 40.6294 60.8168 40.5157 61.0227C40.4044 61.2263 40.3488 61.4725 40.3488 61.7614Z" fill="black"/>
<path d="M79.2775 65V57.7273H80.3748V64.0554H83.6703V65H79.2775ZM84.8368 65V59.5455H85.8986V65H84.8368ZM85.373 58.7038C85.1884 58.7038 85.0298 58.6423 84.8972 58.5192C84.767 58.3937 84.7019 58.2446 84.7019 58.0717C84.7019 57.8965 84.767 57.7474 84.8972 57.6243C85.0298 57.4988 85.1884 57.4361 85.373 57.4361C85.5577 57.4361 85.7151 57.4988 85.8453 57.6243C85.9779 57.7474 86.0442 57.8965 86.0442 58.0717C86.0442 58.2446 85.9779 58.3937 85.8453 58.5192C85.7151 58.6423 85.5577 58.7038 85.373 58.7038ZM89.614 67.1591C89.1808 67.1591 88.8079 67.1023 88.4954 66.9886C88.1853 66.875 87.9319 66.7247 87.7354 66.5376C87.5389 66.3506 87.3922 66.1458 87.2951 65.9233L88.2077 65.5469C88.2717 65.651 88.3569 65.7611 88.4634 65.8771C88.5723 65.9955 88.7191 66.0961 88.9038 66.179C89.0908 66.2618 89.3311 66.3033 89.6246 66.3033C90.0271 66.3033 90.3597 66.205 90.6225 66.0085C90.8853 65.8144 91.0167 65.5043 91.0167 65.0781V64.0057H90.9492C90.8853 64.1217 90.793 64.2507 90.6722 64.3928C90.5539 64.5348 90.3905 64.6579 90.1822 64.7621C89.9738 64.8662 89.7028 64.9183 89.369 64.9183C88.9381 64.9183 88.5498 64.8177 88.2042 64.6165C87.8609 64.4129 87.5887 64.1134 87.3874 63.718C87.1886 63.3203 87.0891 62.8314 87.0891 62.2514C87.0891 61.6714 87.1874 61.1742 87.3839 60.7599C87.5827 60.3456 87.855 60.0284 88.2006 59.8082C88.5463 59.5857 88.9381 59.4744 89.3761 59.4744C89.7146 59.4744 89.988 59.5312 90.1964 59.6449C90.4047 59.7562 90.5669 59.8864 90.6829 60.0355C90.8013 60.1847 90.8924 60.3161 90.9563 60.4297H91.0344V59.5455H92.0749V65.1207C92.0749 65.5895 91.966 65.9742 91.7482 66.2749C91.5304 66.5755 91.2357 66.7981 90.864 66.9425C90.4947 67.0869 90.078 67.1591 89.614 67.1591ZM89.6033 64.0376C89.9087 64.0376 90.1668 63.9666 90.3775 63.8246C90.5906 63.6802 90.7515 63.4742 90.8604 63.2067C90.9717 62.9368 91.0273 62.6136 91.0273 62.2372C91.0273 61.8703 90.9729 61.5471 90.864 61.2678C90.7551 60.9884 90.5953 60.7706 90.3846 60.6143C90.1739 60.4557 89.9135 60.3764 89.6033 60.3764C89.2837 60.3764 89.0174 60.4593 88.8043 60.625C88.5913 60.7884 88.4303 61.0109 88.3214 61.2926C88.2148 61.5743 88.1616 61.8892 88.1616 62.2372C88.1616 62.5947 88.216 62.9084 88.3249 63.1783C88.4338 63.4482 88.5948 63.6589 88.8079 63.8104C89.0233 63.9619 89.2885 64.0376 89.6033 64.0376ZM94.5607 61.7614V65H93.4989V57.7273H94.5465V60.4332H94.614C94.7418 60.1397 94.9371 59.9065 95.1999 59.7337C95.4627 59.5608 95.806 59.4744 96.2298 59.4744C96.6038 59.4744 96.9305 59.5514 97.2099 59.7053C97.4916 59.8591 97.7094 60.0888 97.8633 60.3942C98.0195 60.6972 98.0977 61.076 98.0977 61.5305V65H97.0359V61.6584C97.0359 61.2583 96.9329 60.9482 96.7269 60.728C96.521 60.5054 96.2345 60.3942 95.8675 60.3942C95.6166 60.3942 95.3917 60.4474 95.1928 60.554C94.9963 60.6605 94.8413 60.8168 94.7276 61.0227C94.6164 61.2263 94.5607 61.4725 94.5607 61.7614ZM102.061 59.5455V60.3977H99.0813V59.5455H102.061ZM99.8803 58.2386H100.942V63.3984C100.942 63.6044 100.973 63.7595 101.034 63.8636C101.096 63.9654 101.175 64.0353 101.272 64.0732C101.372 64.1087 101.48 64.1264 101.596 64.1264C101.681 64.1264 101.755 64.1205 101.819 64.1087C101.883 64.0968 101.933 64.0874 101.968 64.0803L102.16 64.9574C102.099 64.9811 102.011 65.0047 101.897 65.0284C101.784 65.0545 101.642 65.0687 101.471 65.071C101.192 65.0758 100.931 65.026 100.69 64.9219C100.449 64.8177 100.253 64.6567 100.104 64.4389C99.9549 64.2211 99.8803 63.9477 99.8803 63.6186V58.2386Z" fill="black"/>
<path d="M195.228 57.7273H196.559L198.875 63.3807H198.96L201.275 57.7273H202.607V65H201.563V59.7372H201.495L199.351 64.9893H198.484L196.339 59.7337H196.272V65H195.228V57.7273ZM206.415 65.1101C205.903 65.1101 205.457 64.9929 205.076 64.7585C204.695 64.5241 204.399 64.1963 204.188 63.7749C203.977 63.3535 203.872 62.861 203.872 62.2976C203.872 61.7318 203.977 61.237 204.188 60.8132C204.399 60.3894 204.695 60.0604 205.076 59.826C205.457 59.5916 205.903 59.4744 206.415 59.4744C206.926 59.4744 207.372 59.5916 207.753 59.826C208.135 60.0604 208.431 60.3894 208.641 60.8132C208.852 61.237 208.957 61.7318 208.957 62.2976C208.957 62.861 208.852 63.3535 208.641 63.7749C208.431 64.1963 208.135 64.5241 207.753 64.7585C207.372 64.9929 206.926 65.1101 206.415 65.1101ZM206.418 64.2188C206.75 64.2188 207.024 64.1312 207.242 63.956C207.46 63.7808 207.621 63.5476 207.725 63.2564C207.832 62.9652 207.885 62.6444 207.885 62.294C207.885 61.946 207.832 61.6264 207.725 61.3352C207.621 61.0417 207.46 60.8061 207.242 60.6286C207.024 60.451 206.75 60.3622 206.418 60.3622C206.084 60.3622 205.807 60.451 205.587 60.6286C205.369 60.8061 205.207 61.0417 205.101 61.3352C204.997 61.6264 204.945 61.946 204.945 62.294C204.945 62.6444 204.997 62.9652 205.101 63.2564C205.207 63.5476 205.369 63.7808 205.587 63.956C205.807 64.1312 206.084 64.2188 206.418 64.2188ZM212.184 65.1065C211.744 65.1065 211.351 64.9941 211.005 64.7692C210.662 64.5419 210.392 64.2187 210.196 63.7997C210.002 63.3783 209.905 62.8729 209.905 62.2834C209.905 61.6939 210.003 61.1896 210.199 60.7706C210.398 60.3516 210.67 60.0308 211.016 59.8082C211.362 59.5857 211.754 59.4744 212.191 59.4744C212.53 59.4744 212.802 59.5312 213.008 59.6449C213.217 59.7562 213.378 59.8864 213.491 60.0355C213.607 60.1847 213.697 60.3161 213.761 60.4297H213.825V57.7273H214.887V65H213.85V64.1513H213.761C213.697 64.2673 213.605 64.3999 213.484 64.549C213.366 64.6982 213.202 64.8284 212.994 64.9396C212.786 65.0509 212.516 65.1065 212.184 65.1065ZM212.419 64.201C212.724 64.201 212.982 64.1205 213.193 63.9595C213.406 63.7962 213.567 63.5701 213.676 63.2812C213.787 62.9924 213.843 62.6562 213.843 62.2727C213.843 61.8939 213.788 61.5625 213.679 61.2784C213.571 60.9943 213.411 60.773 213.2 60.6143C212.989 60.4557 212.729 60.3764 212.419 60.3764C212.099 60.3764 211.833 60.4593 211.62 60.625C211.407 60.7907 211.246 61.0168 211.137 61.3033C211.03 61.5897 210.977 61.9129 210.977 62.2727C210.977 62.6373 211.031 62.9652 211.14 63.2564C211.249 63.5476 211.41 63.7784 211.623 63.9489C211.839 64.117 212.104 64.201 212.419 64.201ZM218.753 65.1101C218.216 65.1101 217.753 64.9953 217.365 64.7656C216.979 64.5336 216.68 64.2081 216.47 63.7891C216.261 63.3677 216.157 62.8741 216.157 62.3082C216.157 61.7495 216.261 61.2571 216.47 60.831C216.68 60.4048 216.974 60.0722 217.35 59.8331C217.729 59.594 218.172 59.4744 218.679 59.4744C218.986 59.4744 219.285 59.5253 219.573 59.6271C219.862 59.7289 220.121 59.8887 220.351 60.1065C220.581 60.3243 220.762 60.6072 220.894 60.9553C221.027 61.3009 221.093 61.7211 221.093 62.2159V62.5923H216.757V61.7969H220.053C220.053 61.5175 219.996 61.2701 219.882 61.0547C219.769 60.8369 219.609 60.6652 219.403 60.5398C219.199 60.4143 218.96 60.3516 218.686 60.3516C218.387 60.3516 218.127 60.425 217.904 60.5717C217.684 60.7161 217.514 60.9055 217.393 61.1399C217.275 61.3719 217.215 61.6241 217.215 61.8963V62.5178C217.215 62.8823 217.279 63.1925 217.407 63.4482C217.537 63.7038 217.719 63.8991 217.951 64.0341C218.183 64.1667 218.454 64.233 218.764 64.233C218.965 64.233 219.148 64.2045 219.314 64.1477C219.48 64.0885 219.623 64.0009 219.744 63.8849C219.865 63.7689 219.957 63.6257 220.021 63.4553L221.026 63.6364C220.945 63.9323 220.801 64.1915 220.593 64.4141C220.387 64.6342 220.127 64.8059 219.815 64.929C219.505 65.0497 219.151 65.1101 218.753 65.1101ZM222.271 65V59.5455H223.298V60.4119H223.354C223.454 60.1184 223.629 59.8875 223.88 59.7195C224.133 59.549 224.42 59.4638 224.739 59.4638C224.806 59.4638 224.884 59.4661 224.974 59.4709C225.066 59.4756 225.138 59.4815 225.19 59.4886V60.5043C225.148 60.4924 225.072 60.4794 224.963 60.4652C224.854 60.4486 224.745 60.4403 224.636 60.4403C224.386 60.4403 224.162 60.4936 223.965 60.6001C223.771 60.7043 223.617 60.8499 223.504 61.0369C223.39 61.2216 223.333 61.4323 223.333 61.669V65H222.271ZM227.648 65.1207C227.302 65.1207 226.99 65.0568 226.71 64.929C226.431 64.7988 226.21 64.6106 226.046 64.3643C225.885 64.1181 225.805 63.8163 225.805 63.4588C225.805 63.151 225.864 62.8977 225.982 62.6989C226.101 62.5 226.261 62.3426 226.462 62.2266C226.663 62.1106 226.888 62.023 227.136 61.9638C227.385 61.9046 227.638 61.8596 227.896 61.8288C228.223 61.791 228.488 61.7602 228.692 61.7365C228.895 61.7105 229.043 61.669 229.136 61.6122C229.228 61.5554 229.274 61.4631 229.274 61.3352V61.3104C229.274 61.0002 229.187 60.7599 229.011 60.5895C228.839 60.419 228.581 60.3338 228.237 60.3338C227.88 60.3338 227.598 60.4131 227.392 60.5717C227.189 60.728 227.048 60.902 226.97 61.0938L225.972 60.8665C226.09 60.535 226.263 60.2675 226.49 60.0639C226.72 59.858 226.984 59.7088 227.282 59.6165C227.58 59.5218 227.894 59.4744 228.223 59.4744C228.441 59.4744 228.672 59.5005 228.916 59.5526C229.162 59.6023 229.391 59.6946 229.604 59.8295C229.82 59.9645 229.996 60.1574 230.134 60.4084C230.271 60.657 230.34 60.9801 230.34 61.3778V65H229.303V64.2543H229.26C229.191 64.3916 229.088 64.5265 228.951 64.6591C228.814 64.7917 228.637 64.9018 228.422 64.9893C228.207 65.0769 227.948 65.1207 227.648 65.1207ZM227.879 64.2685C228.172 64.2685 228.423 64.2105 228.631 64.0945C228.842 63.9785 229.002 63.8269 229.111 63.6399C229.222 63.4505 229.278 63.2481 229.278 63.0327V62.3295C229.24 62.3674 229.167 62.4029 229.058 62.4361C228.951 62.4669 228.829 62.4941 228.692 62.5178C228.555 62.5391 228.421 62.5592 228.291 62.5781C228.16 62.5947 228.051 62.6089 227.964 62.6207C227.758 62.6468 227.57 62.6906 227.399 62.7521C227.231 62.8137 227.096 62.9025 226.994 63.0185C226.895 63.1321 226.845 63.2836 226.845 63.473C226.845 63.7358 226.942 63.9347 227.136 64.0696C227.331 64.2022 227.578 64.2685 227.879 64.2685ZM234.3 59.5455V60.3977H231.321V59.5455H234.3ZM232.12 58.2386H233.181V63.3984C233.181 63.6044 233.212 63.7595 233.274 63.8636C233.335 63.9654 233.415 64.0353 233.512 64.0732C233.611 64.1087 233.719 64.1264 233.835 64.1264C233.92 64.1264 233.995 64.1205 234.059 64.1087C234.122 64.0968 234.172 64.0874 234.208 64.0803L234.399 64.9574C234.338 64.9811 234.25 65.0047 234.137 65.0284C234.023 65.0545 233.881 65.0687 233.71 65.071C233.431 65.0758 233.171 65.026 232.929 64.9219C232.688 64.8177 232.492 64.6567 232.343 64.4389C232.194 64.2211 232.12 63.9477 232.12 63.6186V58.2386ZM237.767 65.1101C237.229 65.1101 236.767 64.9953 236.378 64.7656C235.992 64.5336 235.694 64.2081 235.483 63.7891C235.275 63.3677 235.171 62.8741 235.171 62.3082C235.171 61.7495 235.275 61.2571 235.483 60.831C235.694 60.4048 235.988 60.0722 236.364 59.8331C236.743 59.594 237.186 59.4744 237.692 59.4744C238 59.4744 238.298 59.5253 238.587 59.6271C238.876 59.7289 239.135 59.8887 239.365 60.1065C239.594 60.3243 239.776 60.6072 239.908 60.9553C240.041 61.3009 240.107 61.7211 240.107 62.2159V62.5923H235.771V61.7969H239.066C239.066 61.5175 239.01 61.2701 238.896 61.0547C238.782 60.8369 238.623 60.6652 238.417 60.5398C238.213 60.4143 237.974 60.3516 237.699 60.3516C237.401 60.3516 237.141 60.425 236.918 60.5717C236.698 60.7161 236.527 60.9055 236.407 61.1399C236.288 61.3719 236.229 61.6241 236.229 61.8963V62.5178C236.229 62.8823 236.293 63.1925 236.421 63.4482C236.551 63.7038 236.732 63.8991 236.964 64.0341C237.196 64.1667 237.467 64.233 237.777 64.233C237.979 64.233 238.162 64.2045 238.328 64.1477C238.494 64.0885 238.637 64.0009 238.758 63.8849C238.878 63.7689 238.971 63.6257 239.035 63.4553L240.04 63.6364C239.959 63.9323 239.815 64.1915 239.606 64.4141C239.4 64.6342 239.141 64.8059 238.829 64.929C238.518 65.0497 238.165 65.1101 237.767 65.1101Z" fill="black"/>
<path d="M249.117 57.7273H250.449L252.764 63.3807H252.85L255.165 57.7273H256.497V65H255.453V59.7372H255.385L253.24 64.9893H252.374L250.229 59.7337H250.161V65H249.117V57.7273ZM260.304 65.1101C259.793 65.1101 259.347 64.9929 258.966 64.7585C258.584 64.5241 258.288 64.1963 258.078 63.7749C257.867 63.3535 257.762 62.861 257.762 62.2976C257.762 61.7318 257.867 61.237 258.078 60.8132C258.288 60.3894 258.584 60.0604 258.966 59.826C259.347 59.5916 259.793 59.4744 260.304 59.4744C260.816 59.4744 261.262 59.5916 261.643 59.826C262.024 60.0604 262.32 60.3894 262.531 60.8132C262.742 61.237 262.847 61.7318 262.847 62.2976C262.847 62.861 262.742 63.3535 262.531 63.7749C262.32 64.1963 262.024 64.5241 261.643 64.7585C261.262 64.9929 260.816 65.1101 260.304 65.1101ZM260.308 64.2188C260.639 64.2188 260.914 64.1312 261.132 63.956C261.35 63.7808 261.511 63.5476 261.615 63.2564C261.721 62.9652 261.775 62.6444 261.775 62.294C261.775 61.946 261.721 61.6264 261.615 61.3352C261.511 61.0417 261.35 60.8061 261.132 60.6286C260.914 60.451 260.639 60.3622 260.308 60.3622C259.974 60.3622 259.697 60.451 259.477 60.6286C259.259 60.8061 259.097 61.0417 258.99 61.3352C258.886 61.6264 258.834 61.946 258.834 62.294C258.834 62.6444 258.886 62.9652 258.99 63.2564C259.097 63.5476 259.259 63.7808 259.477 63.956C259.697 64.1312 259.974 64.2188 260.308 64.2188ZM266.074 65.1065C265.634 65.1065 265.241 64.9941 264.895 64.7692C264.552 64.5419 264.282 64.2187 264.085 63.7997C263.891 63.3783 263.794 62.8729 263.794 62.2834C263.794 61.6939 263.892 61.1896 264.089 60.7706C264.288 60.3516 264.56 60.0308 264.906 59.8082C265.251 59.5857 265.643 59.4744 266.081 59.4744C266.42 59.4744 266.692 59.5312 266.898 59.6449C267.106 59.7562 267.267 59.8864 267.381 60.0355C267.497 60.1847 267.587 60.3161 267.651 60.4297H267.715V57.7273H268.776V65H267.74V64.1513H267.651C267.587 64.2673 267.494 64.3999 267.374 64.549C267.255 64.6982 267.092 64.8284 266.884 64.9396C266.675 65.0509 266.405 65.1065 266.074 65.1065ZM266.308 64.201C266.614 64.201 266.872 64.1205 267.083 63.9595C267.296 63.7962 267.457 63.5701 267.566 63.2812C267.677 62.9924 267.732 62.6562 267.732 62.2727C267.732 61.8939 267.678 61.5625 267.569 61.2784C267.46 60.9943 267.3 60.773 267.09 60.6143C266.879 60.4557 266.619 60.3764 266.308 60.3764C265.989 60.3764 265.722 60.4593 265.509 60.625C265.296 60.7907 265.135 61.0168 265.026 61.3033C264.92 61.5897 264.867 61.9129 264.867 62.2727C264.867 62.6373 264.921 62.9652 265.03 63.2564C265.139 63.5476 265.3 63.7784 265.513 63.9489C265.728 64.117 265.994 64.201 266.308 64.201ZM273.506 61.4666V62.3864H270.281V61.4666H273.506ZM281.324 61.3636C281.324 62.1402 281.181 62.8078 280.897 63.3665C280.613 63.9228 280.224 64.3513 279.729 64.652C279.237 64.9503 278.677 65.0994 278.049 65.0994C277.42 65.0994 276.857 64.9503 276.363 64.652C275.87 64.3513 275.482 63.9216 275.198 63.3629C274.914 62.8042 274.772 62.1378 274.772 61.3636C274.772 60.5871 274.914 59.9207 275.198 59.3643C275.482 58.8056 275.87 58.3771 276.363 58.0788C276.857 57.7782 277.42 57.6278 278.049 57.6278C278.677 57.6278 279.237 57.7782 279.729 58.0788C280.224 58.3771 280.613 58.8056 280.897 59.3643C281.181 59.9207 281.324 60.5871 281.324 61.3636ZM280.237 61.3636C280.237 60.7718 280.141 60.2734 279.949 59.8686C279.76 59.4614 279.499 59.1536 279.168 58.9453C278.839 58.7346 278.466 58.6293 278.049 58.6293C277.63 58.6293 277.256 58.7346 276.927 58.9453C276.598 59.1536 276.338 59.4614 276.146 59.8686C275.957 60.2734 275.862 60.7718 275.862 61.3636C275.862 61.9555 275.957 62.455 276.146 62.8622C276.338 63.267 276.598 63.5748 276.927 63.7855C277.256 63.9938 277.63 64.098 278.049 64.098C278.466 64.098 278.839 63.9938 279.168 63.7855C279.499 63.5748 279.76 63.267 279.949 62.8622C280.141 62.455 280.237 61.9555 280.237 61.3636ZM284.904 65.1101C284.376 65.1101 283.921 64.9905 283.54 64.7514C283.162 64.5099 282.87 64.1773 282.667 63.7536C282.463 63.3298 282.361 62.8445 282.361 62.2976C282.361 61.7436 282.465 61.2547 282.674 60.831C282.882 60.4048 283.176 60.0722 283.555 59.8331C283.933 59.594 284.38 59.4744 284.893 59.4744C285.308 59.4744 285.677 59.5514 286.001 59.7053C286.326 59.8568 286.587 60.0698 286.786 60.3445C286.987 60.6191 287.107 60.9399 287.145 61.3068H286.111C286.055 61.0511 285.924 60.831 285.721 60.6463C285.519 60.4616 285.25 60.3693 284.911 60.3693C284.615 60.3693 284.356 60.4474 284.133 60.6037C283.913 60.7576 283.742 60.9777 283.618 61.2642C283.495 61.5483 283.434 61.8845 283.434 62.2727C283.434 62.6705 283.494 63.0137 283.615 63.3026C283.736 63.5914 283.906 63.8151 284.126 63.9737C284.349 64.1323 284.61 64.2116 284.911 64.2116C285.112 64.2116 285.295 64.175 285.458 64.1016C285.624 64.0258 285.762 63.9181 285.873 63.7784C285.987 63.6387 286.066 63.4706 286.111 63.2741H287.145C287.107 63.6269 286.992 63.9418 286.8 64.2188C286.608 64.4957 286.352 64.7135 286.03 64.8722C285.71 65.0308 285.335 65.1101 284.904 65.1101ZM290.578 65.1101C290.05 65.1101 289.595 64.9905 289.214 64.7514C288.835 64.5099 288.544 64.1773 288.341 63.7536C288.137 63.3298 288.035 62.8445 288.035 62.2976C288.035 61.7436 288.139 61.2547 288.348 60.831C288.556 60.4048 288.85 60.0722 289.228 59.8331C289.607 59.594 290.053 59.4744 290.567 59.4744C290.981 59.4744 291.351 59.5514 291.675 59.7053C291.999 59.8568 292.261 60.0698 292.46 60.3445C292.661 60.6191 292.781 60.9399 292.819 61.3068H291.785C291.728 61.0511 291.598 60.831 291.395 60.6463C291.193 60.4616 290.923 60.3693 290.585 60.3693C290.289 60.3693 290.03 60.4474 289.807 60.6037C289.587 60.7576 289.415 60.9777 289.292 61.2642C289.169 61.5483 289.108 61.8845 289.108 62.2727C289.108 62.6705 289.168 63.0137 289.289 63.3026C289.409 63.5914 289.58 63.8151 289.8 63.9737C290.023 64.1323 290.284 64.2116 290.585 64.2116C290.786 64.2116 290.968 64.175 291.132 64.1016C291.297 64.0258 291.436 63.9181 291.547 63.7784C291.661 63.6387 291.74 63.4706 291.785 63.2741H292.819C292.781 63.6269 292.666 63.9418 292.474 64.2188C292.282 64.4957 292.025 64.7135 291.703 64.8722C291.384 65.0308 291.009 65.1101 290.578 65.1101ZM297.168 61.4666V62.3864H293.943V61.4666H297.168ZM302.635 59.6378C302.597 59.3016 302.441 59.0412 302.166 58.8565C301.891 58.6695 301.546 58.576 301.129 58.576C300.831 58.576 300.573 58.6233 300.355 58.718C300.137 58.8104 299.968 58.9382 299.847 59.1016C299.729 59.2625 299.67 59.446 299.67 59.652C299.67 59.8248 299.71 59.974 299.79 60.0994C299.873 60.2249 299.981 60.3303 300.113 60.4155C300.248 60.4983 300.393 60.5682 300.547 60.625C300.701 60.6795 300.849 60.7244 300.991 60.7599L301.701 60.9446C301.933 61.0014 302.171 61.0784 302.415 61.1754C302.658 61.2725 302.885 61.4003 303.093 61.5589C303.301 61.7176 303.469 61.9141 303.597 62.1484C303.727 62.3828 303.792 62.6634 303.792 62.9901C303.792 63.402 303.686 63.7678 303.473 64.0874C303.262 64.407 302.956 64.6591 302.553 64.8438C302.153 65.0284 301.669 65.1207 301.101 65.1207C300.556 65.1207 300.085 65.0343 299.687 64.8615C299.29 64.6887 298.978 64.4437 298.753 64.1264C298.528 63.8068 298.404 63.428 298.381 62.9901H299.481C299.503 63.2528 299.588 63.4718 299.737 63.647C299.889 63.8198 300.081 63.9489 300.316 64.0341C300.553 64.117 300.812 64.1584 301.094 64.1584C301.404 64.1584 301.68 64.1098 301.921 64.0128C302.165 63.9134 302.357 63.776 302.496 63.6009C302.636 63.4233 302.706 63.2161 302.706 62.9794C302.706 62.764 302.644 62.5876 302.521 62.4503C302.4 62.313 302.236 62.1993 302.028 62.1094C301.822 62.0194 301.588 61.9401 301.328 61.8714L300.469 61.6371C299.886 61.4785 299.425 61.2453 299.084 60.9375C298.745 60.6297 298.576 60.2225 298.576 59.7159C298.576 59.2969 298.689 58.9311 298.917 58.6186C299.144 58.3061 299.452 58.0634 299.84 57.8906C300.228 57.7154 300.666 57.6278 301.154 57.6278C301.646 57.6278 302.081 57.7143 302.457 57.8871C302.836 58.0599 303.134 58.2978 303.352 58.6009C303.57 58.9015 303.684 59.2472 303.693 59.6378H302.635ZM307.369 65.1101C306.832 65.1101 306.369 64.9953 305.981 64.7656C305.595 64.5336 305.297 64.2081 305.086 63.7891C304.878 63.3677 304.773 62.8741 304.773 62.3082C304.773 61.7495 304.878 61.2571 305.086 60.831C305.297 60.4048 305.59 60.0722 305.967 59.8331C306.345 59.594 306.788 59.4744 307.295 59.4744C307.603 59.4744 307.901 59.5253 308.19 59.6271C308.478 59.7289 308.738 59.8887 308.967 60.1065C309.197 60.3243 309.378 60.6072 309.511 60.9553C309.643 61.3009 309.71 61.7211 309.71 62.2159V62.5923H305.374V61.7969H308.669C308.669 61.5175 308.612 61.2701 308.499 61.0547C308.385 60.8369 308.225 60.6652 308.019 60.5398C307.816 60.4143 307.576 60.3516 307.302 60.3516C307.004 60.3516 306.743 60.425 306.521 60.5717C306.3 60.7161 306.13 60.9055 306.009 61.1399C305.891 61.3719 305.832 61.6241 305.832 61.8963V62.5178C305.832 62.8823 305.896 63.1925 306.023 63.4482C306.154 63.7038 306.335 63.8991 306.567 64.0341C306.799 64.1667 307.07 64.233 307.38 64.233C307.581 64.233 307.765 64.2045 307.93 64.1477C308.096 64.0885 308.239 64.0009 308.36 63.8849C308.481 63.7689 308.573 63.6257 308.637 63.4553L309.642 63.6364C309.562 63.9323 309.417 64.1915 309.209 64.4141C309.003 64.6342 308.744 64.8059 308.431 64.929C308.121 65.0497 307.767 65.1101 307.369 65.1101ZM315.398 59.5455L313.42 65H312.283L310.302 59.5455H311.442L312.823 63.7429H312.88L314.258 59.5455H315.398Z" fill="black"/>
<path d="M128.926 65V57.7273H130.023V64.0554H133.319V65H128.926ZM134.485 65V59.5455H135.547V65H134.485ZM135.021 58.7038C134.837 58.7038 134.678 58.6423 134.546 58.5192C134.415 58.3937 134.35 58.2446 134.35 58.0717C134.35 57.8965 134.415 57.7474 134.546 57.6243C134.678 57.4988 134.837 57.4361 135.021 57.4361C135.206 57.4361 135.364 57.4988 135.494 57.6243C135.626 57.7474 135.693 57.8965 135.693 58.0717C135.693 58.2446 135.626 58.3937 135.494 58.5192C135.364 58.6423 135.206 58.7038 135.021 58.7038ZM139.262 67.1591C138.829 67.1591 138.456 67.1023 138.144 66.9886C137.834 66.875 137.58 66.7247 137.384 66.5376C137.187 66.3506 137.041 66.1458 136.944 65.9233L137.856 65.5469C137.92 65.651 138.005 65.7611 138.112 65.8771C138.221 65.9955 138.368 66.0961 138.552 66.179C138.739 66.2618 138.98 66.3033 139.273 66.3033C139.676 66.3033 140.008 66.205 140.271 66.0085C140.534 65.8144 140.665 65.5043 140.665 65.0781V64.0057H140.598C140.534 64.1217 140.441 64.2507 140.321 64.3928C140.202 64.5348 140.039 64.6579 139.831 64.7621C139.622 64.8662 139.351 64.9183 139.017 64.9183C138.587 64.9183 138.198 64.8177 137.853 64.6165C137.509 64.4129 137.237 64.1134 137.036 63.718C136.837 63.3203 136.738 62.8314 136.738 62.2514C136.738 61.6714 136.836 61.1742 137.032 60.7599C137.231 60.3456 137.503 60.0284 137.849 59.8082C138.195 59.5857 138.587 59.4744 139.025 59.4744C139.363 59.4744 139.636 59.5312 139.845 59.6449C140.053 59.7562 140.215 59.8864 140.331 60.0355C140.45 60.1847 140.541 60.3161 140.605 60.4297H140.683V59.5455H141.723V65.1207C141.723 65.5895 141.614 65.9742 141.397 66.2749C141.179 66.5755 140.884 66.7981 140.512 66.9425C140.143 67.0869 139.726 67.1591 139.262 67.1591ZM139.252 64.0376C139.557 64.0376 139.815 63.9666 140.026 63.8246C140.239 63.6802 140.4 63.4742 140.509 63.2067C140.62 62.9368 140.676 62.6136 140.676 62.2372C140.676 61.8703 140.621 61.5471 140.512 61.2678C140.404 60.9884 140.244 60.7706 140.033 60.6143C139.822 60.4557 139.562 60.3764 139.252 60.3764C138.932 60.3764 138.666 60.4593 138.453 60.625C138.24 60.7884 138.079 61.0109 137.97 61.2926C137.863 61.5743 137.81 61.8892 137.81 62.2372C137.81 62.5947 137.864 62.9084 137.973 63.1783C138.082 63.4482 138.243 63.6589 138.456 63.8104C138.672 63.9619 138.937 64.0376 139.252 64.0376ZM144.209 61.7614V65H143.147V57.7273H144.195V60.4332H144.262C144.39 60.1397 144.586 59.9065 144.848 59.7337C145.111 59.5608 145.454 59.4744 145.878 59.4744C146.252 59.4744 146.579 59.5514 146.858 59.7053C147.14 59.8591 147.358 60.0888 147.512 60.3942C147.668 60.6972 147.746 61.076 147.746 61.5305V65H146.684V61.6584C146.684 61.2583 146.581 60.9482 146.375 60.728C146.169 60.5054 145.883 60.3942 145.516 60.3942C145.265 60.3942 145.04 60.4474 144.841 60.554C144.645 60.6605 144.49 60.8168 144.376 61.0227C144.265 61.2263 144.209 61.4725 144.209 61.7614ZM151.709 59.5455V60.3977H148.73V59.5455H151.709ZM149.529 58.2386H150.591V63.3984C150.591 63.6044 150.621 63.7595 150.683 63.8636C150.744 63.9654 150.824 64.0353 150.921 64.0732C151.02 64.1087 151.128 64.1264 151.244 64.1264C151.329 64.1264 151.404 64.1205 151.468 64.1087C151.532 64.0968 151.581 64.0874 151.617 64.0803L151.809 64.9574C151.747 64.9811 151.659 65.0047 151.546 65.0284C151.432 65.0545 151.29 65.0687 151.12 65.071C150.84 65.0758 150.58 65.026 150.338 64.9219C150.097 64.8177 149.902 64.6567 149.752 64.4389C149.603 64.2211 149.529 63.9477 149.529 63.6186V58.2386ZM155.912 61.4666V62.3864H152.688V61.4666H155.912ZM157.412 57.7273H158.744L161.059 63.3807H161.145L163.46 57.7273H164.792V65H163.748V59.7372H163.68L161.535 64.9893H160.669L158.524 59.7337H158.456V65H157.412V57.7273ZM168.599 65.1101C168.088 65.1101 167.642 64.9929 167.26 64.7585C166.879 64.5241 166.583 64.1963 166.373 63.7749C166.162 63.3535 166.057 62.861 166.057 62.2976C166.057 61.7318 166.162 61.237 166.373 60.8132C166.583 60.3894 166.879 60.0604 167.26 59.826C167.642 59.5916 168.088 59.4744 168.599 59.4744C169.111 59.4744 169.557 59.5916 169.938 59.826C170.319 60.0604 170.615 60.3894 170.826 60.8132C171.037 61.237 171.142 61.7318 171.142 62.2976C171.142 62.861 171.037 63.3535 170.826 63.7749C170.615 64.1963 170.319 64.5241 169.938 64.7585C169.557 64.9929 169.111 65.1101 168.599 65.1101ZM168.603 64.2188C168.934 64.2188 169.209 64.1312 169.427 63.956C169.644 63.7808 169.805 63.5476 169.91 63.2564C170.016 62.9652 170.069 62.6444 170.069 62.294C170.069 61.946 170.016 61.6264 169.91 61.3352C169.805 61.0417 169.644 60.8061 169.427 60.6286C169.209 60.451 168.934 60.3622 168.603 60.3622C168.269 60.3622 167.992 60.451 167.772 60.6286C167.554 60.8061 167.392 61.0417 167.285 61.3352C167.181 61.6264 167.129 61.946 167.129 62.294C167.129 62.6444 167.181 62.9652 167.285 63.2564C167.392 63.5476 167.554 63.7808 167.772 63.956C167.992 64.1312 168.269 64.2188 168.603 64.2188ZM174.369 65.1065C173.929 65.1065 173.536 64.9941 173.19 64.7692C172.847 64.5419 172.577 64.2187 172.38 63.7997C172.186 63.3783 172.089 62.8729 172.089 62.2834C172.089 61.6939 172.187 61.1896 172.384 60.7706C172.583 60.3516 172.855 60.0308 173.201 59.8082C173.546 59.5857 173.938 59.4744 174.376 59.4744C174.715 59.4744 174.987 59.5312 175.193 59.6449C175.401 59.7562 175.562 59.8864 175.676 60.0355C175.792 60.1847 175.882 60.3161 175.946 60.4297H176.01V57.7273H177.071V65H176.034V64.1513H175.946C175.882 64.2673 175.789 64.3999 175.669 64.549C175.55 64.6982 175.387 64.8284 175.179 64.9396C174.97 65.0509 174.7 65.1065 174.369 65.1065ZM174.603 64.201C174.909 64.201 175.167 64.1205 175.377 63.9595C175.591 63.7962 175.752 63.5701 175.86 63.2812C175.972 62.9924 176.027 62.6562 176.027 62.2727C176.027 61.8939 175.973 61.5625 175.864 61.2784C175.755 60.9943 175.595 60.773 175.385 60.6143C175.174 60.4557 174.913 60.3764 174.603 60.3764C174.284 60.3764 174.017 60.4593 173.804 60.625C173.591 60.7907 173.43 61.0168 173.321 61.3033C173.215 61.5897 173.162 61.9129 173.162 62.2727C173.162 62.6373 173.216 62.9652 173.325 63.2564C173.434 63.5476 173.595 63.7784 173.808 63.9489C174.023 64.117 174.288 64.201 174.603 64.201Z" fill="black"/>
</svg>
